<svg width="26" height="26" viewBox="0 0 26 26" fill="none" xmlns="http://www.w3.org/2000/svg">
<path d="M7.25841 23.075C7.0598 22.8764 6.9605 22.6236 6.9605 22.3167C6.9605 22.0097 7.0598 21.7569 7.25841 21.5583L12.4313 16.3583C12.8466 15.9431 13.3612 15.7354 13.9751 15.7354C14.589 15.7354 15.1036 15.9431 15.5188 16.3583L17.7667 18.6062L22.6147 13.7583C22.8313 13.5417 23.0841 13.4333 23.373 13.4333C23.6619 13.4333 23.9147 13.5417 24.1313 13.7583C24.348 13.975 24.4563 14.2321 24.4563 14.5297C24.4563 14.8279 24.348 15.0854 24.1313 15.3021L19.3105 20.15C18.8952 20.5653 18.3853 20.7729 17.7808 20.7729C17.1756 20.7729 16.6654 20.5653 16.2501 20.15L13.9751 17.875L8.77508 23.075C8.57647 23.2736 8.32803 23.3773 8.02975 23.3859C7.73219 23.3953 7.47508 23.2917 7.25841 23.075ZM4.33341 22.75C3.73758 22.75 3.22769 22.538 2.80375 22.1141C2.37908 21.6894 2.16675 21.1792 2.16675 20.5833V5.41667C2.16675 4.82083 2.37908 4.31058 2.80375 3.88592C3.22769 3.46197 3.73758 3.25 4.33341 3.25H19.5001C20.0959 3.25 20.6062 3.46197 21.0308 3.88592C21.4548 4.31058 21.6667 4.82083 21.6667 5.41667V9.75C21.6667 10.0569 21.5627 10.3141 21.3547 10.5213C21.1475 10.7293 20.8904 10.8333 20.5834 10.8333H4.33341V20.5833V22.75ZM4.33341 8.66667H19.5001V5.41667H4.33341V8.66667Z" fill="white"/>
</svg>
