<svg width="29" height="29" viewBox="0 0 29 29" fill="none" xmlns="http://www.w3.org/2000/svg">
<path d="M23.1998 19.4714C24.0252 18.6992 24.6884 17.7702 25.1507 16.7388C25.6131 15.7074 25.8653 14.5942 25.8926 13.4643C25.8926 8.28568 20.8176 4.14282 14.4998 4.14282C8.18193 4.14282 3.10693 8.28568 3.10693 13.4643C3.10693 18.6428 8.18193 22.7857 14.4998 22.7857C15.5847 22.8078 16.6668 22.6681 17.7105 22.3714L23.8212 24.8571L23.1998 19.4714Z" stroke="white" stroke-width="1.28571" stroke-miterlimit="10" stroke-linecap="square"/>
<path d="M14.5 8.28577L14.5 14.5001" stroke="white" stroke-width="1.28571" stroke-miterlimit="10" stroke-linecap="square"/>
<path d="M14.5001 19.6786C15.0721 19.6786 15.5358 19.2149 15.5358 18.6429C15.5358 18.0709 15.0721 17.6072 14.5001 17.6072C13.9281 17.6072 13.4644 18.0709 13.4644 18.6429C13.4644 19.2149 13.9281 19.6786 14.5001 19.6786Z" fill="white"/>
</svg>
