<svg width="376" height="132" viewBox="0 0 376 132" fill="none" xmlns="http://www.w3.org/2000/svg">
<path d="M83.92 37V30.208H80.536V37H77.248V20.488H80.536V27.16H83.92V20.488H87.208V37H83.92ZM99.4373 20.488V29.68C99.4373 31.856 99.3413 33.44 99.1493 34.432C98.9733 35.408 98.5413 36.112 97.8533 36.544C97.1813 36.976 96.0693 37.192 94.5173 37.192C92.9653 37.192 91.8453 36.976 91.1573 36.544C90.4853 36.112 90.0533 35.408 89.8613 34.432C89.6853 33.44 89.5973 31.856 89.5973 29.68V20.488H92.8853V30.784C92.8853 31.952 92.9093 32.76 92.9573 33.208C93.0213 33.64 93.1573 33.928 93.3653 34.072C93.5893 34.216 93.9733 34.288 94.5173 34.288C95.0613 34.288 95.4373 34.216 95.6453 34.072C95.8533 33.928 95.9813 33.64 96.0293 33.208C96.0933 32.776 96.1253 31.968 96.1253 30.784V20.488H99.4373ZM101.834 20.488H107.498C108.794 20.488 109.762 20.832 110.402 21.52C111.058 22.208 111.386 23.248 111.386 24.64C111.386 25.808 111.21 26.704 110.858 27.328C110.506 27.936 109.954 28.336 109.202 28.528V28.624C110.034 28.832 110.626 29.232 110.978 29.824C111.346 30.416 111.53 31.336 111.53 32.584C111.53 34.04 111.218 35.144 110.594 35.896C109.97 36.632 108.938 37 107.498 37H101.834V20.488ZM106.61 27.232C107.026 27.232 107.338 27.184 107.546 27.088C107.77 26.992 107.922 26.808 108.002 26.536C108.098 26.264 108.146 25.856 108.146 25.312C108.146 24.736 108.106 24.32 108.026 24.064C107.946 23.792 107.802 23.616 107.594 23.536C107.386 23.44 107.058 23.392 106.61 23.392H105.098V27.232H106.61ZM106.682 34.096C107.13 34.096 107.458 34.048 107.666 33.952C107.874 33.856 108.018 33.672 108.098 33.4C108.178 33.128 108.218 32.696 108.218 32.104C108.218 31.512 108.178 31.08 108.098 30.808C108.018 30.52 107.866 30.328 107.642 30.232C107.434 30.136 107.114 30.088 106.682 30.088H105.098V34.096H106.682ZM117.866 37V20.488H121.154V37H117.866ZM130.758 37L126.918 27.952H126.822V37H123.678V20.488H126.87L130.446 28.84H130.566V20.488H133.734V37H130.758ZM140.296 37.192C139.624 37.192 138.888 37.152 138.088 37.072C137.304 37.008 136.608 36.912 136 36.784V34.096C137.632 34.224 138.76 34.288 139.384 34.288C139.944 34.288 140.368 34.256 140.656 34.192C140.944 34.128 141.16 34.016 141.304 33.856C141.432 33.728 141.512 33.552 141.544 33.328C141.592 33.088 141.616 32.752 141.616 32.32C141.616 31.728 141.584 31.312 141.52 31.072C141.456 30.816 141.32 30.632 141.112 30.52C140.92 30.392 140.576 30.28 140.08 30.184L137.824 29.776C137.024 29.632 136.472 29.192 136.168 28.456C135.864 27.72 135.712 26.656 135.712 25.264C135.712 23.904 135.904 22.864 136.288 22.144C136.688 21.424 137.232 20.936 137.92 20.68C138.608 20.424 139.48 20.296 140.536 20.296C141.272 20.296 141.976 20.344 142.648 20.44C143.336 20.536 143.896 20.632 144.328 20.728V23.416C143.464 23.272 142.496 23.2 141.424 23.2C140.848 23.2 140.4 23.224 140.08 23.272C139.776 23.32 139.552 23.408 139.408 23.536C139.232 23.664 139.12 23.848 139.072 24.088C139.024 24.328 139 24.68 139 25.144C139 25.64 139.024 26 139.072 26.224C139.136 26.448 139.24 26.608 139.384 26.704C139.528 26.8 139.776 26.88 140.128 26.944L142.24 27.328C142.8 27.408 143.272 27.584 143.656 27.856C144.056 28.112 144.368 28.544 144.592 29.152C144.816 29.792 144.928 30.696 144.928 31.864C144.928 33.384 144.744 34.528 144.376 35.296C144.008 36.064 143.496 36.576 142.84 36.832C142.2 37.072 141.352 37.192 140.296 37.192ZM146.905 37V20.488H150.193V37H146.905ZM157.493 30.232V27.4H162.029V36.688C161.469 36.832 160.789 36.952 159.989 37.048C159.189 37.144 158.445 37.192 157.757 37.192C156.237 37.192 155.101 36.968 154.349 36.52C153.613 36.056 153.101 35.24 152.813 34.072C152.541 32.888 152.405 31.112 152.405 28.744C152.405 26.392 152.549 24.632 152.837 23.464C153.141 22.28 153.685 21.456 154.469 20.992C155.253 20.528 156.429 20.296 157.997 20.296C158.637 20.296 159.333 20.344 160.085 20.44C160.837 20.536 161.477 20.648 162.005 20.776V23.488C160.629 23.296 159.629 23.2 159.005 23.2C157.917 23.2 157.165 23.288 156.749 23.464C156.349 23.64 156.069 24.096 155.909 24.832C155.765 25.552 155.693 26.856 155.693 28.744C155.693 30.504 155.741 31.76 155.837 32.512C155.933 33.248 156.117 33.744 156.389 34C156.677 34.256 157.157 34.384 157.829 34.384C157.973 34.384 158.357 34.36 158.981 34.312V30.232H157.493ZM171.084 37V30.208H167.7V37H164.412V20.488H167.7V27.16H171.084V20.488H174.372V37H171.084ZM178.969 37V23.488H175.849V20.488H185.401V23.488H182.281V37H178.969Z" fill="#248FCB"/>
<path d="M31.608 37.24C31 37.24 30.424 37.128 29.88 36.904C29.352 36.68 28.92 36.328 28.584 35.848C28.248 35.352 28.056 34.728 28.008 33.976C27.992 33.88 27.984 33.784 27.984 33.688C27.984 33.592 27.984 33.496 27.984 33.4C27.984 32.344 28.152 31.232 28.488 30.064C28.84 28.896 29.328 27.784 29.952 26.728C30.576 25.656 31.312 24.744 32.16 23.992C32.864 23.368 33.592 22.896 34.344 22.576C35.096 22.256 35.96 22.096 36.936 22.096C37.416 22.096 37.856 22.152 38.256 22.264C38.672 22.36 38.968 22.504 39.144 22.696C39.224 22.776 39.264 22.896 39.264 23.056C39.264 23.152 39.24 23.248 39.192 23.344C39.16 23.424 39.104 23.464 39.024 23.464C38.944 23.464 38.864 23.424 38.784 23.344C38.512 23.12 38.232 23.008 37.944 23.008C37.496 23.008 37.04 23.208 36.576 23.608C36.112 23.992 35.68 24.408 35.28 24.856C34.832 25.4 34.376 26.08 33.912 26.896C33.464 27.696 33.056 28.504 32.688 29.32C32.464 29.816 32.216 30.424 31.944 31.144C31.672 31.848 31.44 32.56 31.248 33.28C31.056 33.984 30.96 34.6 30.96 35.128C30.96 35.496 31.016 35.792 31.128 36.016C31.256 36.24 31.472 36.352 31.776 36.352C32.432 36.352 33.184 35.856 34.032 34.864C34.896 33.856 35.784 32.392 36.696 30.472C37.064 29.672 37.336 28.896 37.512 28.144C37.688 27.376 37.776 26.688 37.776 26.08C37.776 25.168 37.616 24.528 37.296 24.16C37.216 24.048 37.176 23.976 37.176 23.944C37.176 23.832 37.272 23.776 37.464 23.776C37.608 23.776 37.752 23.808 37.896 23.872C38.52 24.144 38.952 24.568 39.192 25.144C39.448 25.704 39.576 26.32 39.576 26.992C39.576 27.728 39.472 28.472 39.264 29.224C39.056 29.976 38.832 30.608 38.592 31.12C38.176 32.032 37.656 32.944 37.032 33.856C36.408 34.768 35.72 35.512 34.968 36.088C34.504 36.456 33.976 36.744 33.384 36.952C32.792 37.144 32.2 37.24 31.608 37.24ZM40.3134 39.688C39.5614 39.688 39.0494 39.44 38.7774 38.944C38.5214 38.448 38.3934 37.872 38.3934 37.216C38.4094 36.528 38.5374 35.728 38.7774 34.816C39.0334 33.888 39.3534 32.928 39.7374 31.936C40.1374 30.928 40.5534 29.968 40.9854 29.056H40.5294C40.4334 29.056 40.3854 29.008 40.3854 28.912C40.3854 28.832 40.4254 28.744 40.5054 28.648C40.6014 28.552 40.7054 28.504 40.8174 28.504H41.2254C41.5134 27.944 41.7934 27.424 42.0654 26.944C42.3374 26.448 42.5854 26.024 42.8094 25.672C43.2094 25.048 43.6094 24.592 44.0094 24.304C44.4254 24.016 45.0014 23.872 45.7374 23.872C46.4254 23.872 46.8974 23.904 47.1534 23.968C47.4094 24.016 47.5374 24.096 47.5374 24.208C47.5374 24.336 47.4014 24.496 47.1294 24.688C46.8574 24.88 46.6174 25.096 46.4094 25.336C46.2014 25.56 45.9134 25.96 45.5454 26.536C45.1774 27.096 44.7854 27.752 44.3694 28.504H46.7694C46.8014 28.504 46.8174 28.528 46.8174 28.576C46.8174 28.64 46.7854 28.736 46.7214 28.864C46.6574 28.992 46.5934 29.056 46.5294 29.056H44.0814L43.5054 30.16C43.7294 30.48 43.8894 30.896 43.9854 31.408C44.0974 31.92 44.1534 32.472 44.1534 33.064C44.1534 33.752 44.0814 34.464 43.9374 35.2C43.8094 35.92 43.6094 36.6 43.3374 37.24C43.0654 37.88 42.7374 38.408 42.3534 38.824C41.9694 39.256 41.5214 39.52 41.0094 39.616C40.7534 39.664 40.5214 39.688 40.3134 39.688ZM41.0814 38.8C41.2734 38.8 41.4574 38.672 41.6334 38.416C41.9694 37.952 42.2574 37.392 42.4974 36.736C42.7534 36.08 42.9374 35.528 43.0494 35.08C43.1294 34.76 43.2014 34.376 43.2654 33.928C43.3294 33.48 43.3614 33.024 43.3614 32.56C43.3614 31.968 43.2894 31.424 43.1454 30.928C42.9534 31.328 42.7214 31.84 42.4494 32.464C42.1774 33.072 41.9134 33.72 41.6574 34.408C41.4014 35.096 41.1854 35.768 41.0094 36.424C40.8334 37.064 40.7454 37.624 40.7454 38.104C40.7454 38.568 40.8574 38.8 41.0814 38.8ZM46.4574 39.688C45.7054 39.688 45.1934 39.44 44.9214 38.944C44.6654 38.448 44.5374 37.872 44.5374 37.216C44.5534 36.528 44.6814 35.728 44.9214 34.816C45.1774 33.888 45.4974 32.928 45.8814 31.936C46.2814 30.928 46.6974 29.968 47.1294 29.056H46.6734C46.5774 29.056 46.5294 29.008 46.5294 28.912C46.5294 28.832 46.5694 28.744 46.6494 28.648C46.7454 28.552 46.8494 28.504 46.9614 28.504H47.3694C47.6574 27.944 47.9374 27.424 48.2094 26.944C48.4814 26.448 48.7294 26.024 48.9534 25.672C49.3534 25.048 49.7534 24.592 50.1534 24.304C50.5694 24.016 51.1454 23.872 51.8814 23.872C52.5694 23.872 53.0414 23.904 53.2974 23.968C53.5534 24.016 53.6814 24.096 53.6814 24.208C53.6814 24.336 53.5454 24.496 53.2734 24.688C53.0014 24.88 52.7614 25.096 52.5534 25.336C52.3454 25.56 52.0574 25.96 51.6894 26.536C51.3214 27.096 50.9294 27.752 50.5134 28.504H52.9134C52.9454 28.504 52.9614 28.528 52.9614 28.576C52.9614 28.64 52.9294 28.736 52.8654 28.864C52.8014 28.992 52.7374 29.056 52.6734 29.056H50.2254L49.6494 30.16C49.8734 30.48 50.0334 30.896 50.1294 31.408C50.2414 31.92 50.2974 32.472 50.2974 33.064C50.2974 33.752 50.2254 34.464 50.0814 35.2C49.9534 35.92 49.7534 36.6 49.4814 37.24C49.2094 37.88 48.8814 38.408 48.4974 38.824C48.1134 39.256 47.6654 39.52 47.1534 39.616C46.8974 39.664 46.6654 39.688 46.4574 39.688ZM47.2254 38.8C47.4174 38.8 47.6014 38.672 47.7774 38.416C48.1134 37.952 48.4014 37.392 48.6414 36.736C48.8974 36.08 49.0814 35.528 49.1934 35.08C49.2734 34.76 49.3454 34.376 49.4094 33.928C49.4734 33.48 49.5054 33.024 49.5054 32.56C49.5054 31.968 49.4334 31.424 49.2894 30.928C49.0974 31.328 48.8654 31.84 48.5934 32.464C48.3214 33.072 48.0574 33.72 47.8014 34.408C47.5454 35.096 47.3294 35.768 47.1534 36.424C46.9774 37.064 46.8894 37.624 46.8894 38.104C46.8894 38.568 47.0014 38.8 47.2254 38.8ZM53.6334 37.192C53.0574 37.192 52.5374 37.032 52.0734 36.712C51.6094 36.376 51.3774 35.832 51.3774 35.08C51.3774 34.584 51.4574 34.008 51.6174 33.352C51.7934 32.696 52.0094 32.024 52.2654 31.336C52.5214 30.632 52.7854 29.984 53.0574 29.392C53.3454 28.784 53.6014 28.288 53.8254 27.904C54.1774 27.344 54.5694 27 55.0014 26.872C55.4494 26.744 55.9934 26.68 56.6334 26.68C57.0974 26.68 57.4814 26.736 57.7854 26.848C58.0894 26.944 58.1374 27.056 57.9294 27.184C57.6254 27.392 57.2334 27.856 56.7534 28.576C56.2734 29.296 55.8094 30.104 55.3614 31C55.2334 31.256 55.0734 31.6 54.8814 32.032C54.6894 32.448 54.4974 32.896 54.3054 33.376C54.1294 33.84 53.9774 34.288 53.8494 34.72C53.7214 35.136 53.6574 35.48 53.6574 35.752C53.6574 36.152 53.8414 36.352 54.2094 36.352C54.5934 36.352 55.0254 36.168 55.5054 35.8C55.7294 35.624 55.9374 35.424 56.1294 35.2C56.3214 34.976 56.4974 34.752 56.6574 34.528C56.9774 34.096 57.2654 33.632 57.5214 33.136C57.7934 32.624 58.0414 32.144 58.2654 31.696C58.3134 31.6 58.3774 31.552 58.4574 31.552C58.5694 31.552 58.6654 31.608 58.7454 31.72C58.8254 31.832 58.8334 31.952 58.7694 32.08C58.5294 32.56 58.2334 33.128 57.8814 33.784C57.5294 34.424 57.1214 35.016 56.6574 35.56C56.2574 36.024 55.8014 36.416 55.2894 36.736C54.7934 37.04 54.2414 37.192 53.6334 37.192ZM57.0654 25.48C56.7934 25.48 56.5774 25.392 56.4174 25.216C56.2574 25.024 56.1774 24.776 56.1774 24.472C56.1774 24.104 56.2734 23.768 56.4654 23.464C56.6574 23.16 56.8974 22.912 57.1854 22.72C57.4734 22.528 57.7694 22.432 58.0734 22.432C58.3454 22.432 58.5614 22.528 58.7214 22.72C58.8814 22.896 58.9614 23.12 58.9614 23.392C58.9614 23.744 58.8654 24.08 58.6734 24.4C58.4814 24.72 58.2414 24.984 57.9534 25.192C57.6654 25.384 57.3694 25.48 57.0654 25.48ZM60.8004 37.384C59.9204 37.384 59.1684 37.152 58.5444 36.688C57.9204 36.208 57.6084 35.488 57.6084 34.528C57.6084 33.792 57.7524 33 58.0404 32.152C58.3444 31.304 58.7364 30.496 59.2164 29.728C59.7124 28.944 60.2564 28.296 60.8484 27.784C61.2164 27.464 61.6164 27.2 62.0484 26.992C62.4804 26.784 62.9124 26.672 63.3444 26.656C64.0804 26.608 64.7284 26.696 65.2884 26.92C65.8484 27.144 66.1284 27.584 66.1284 28.24C66.1284 28.4 66.1044 28.584 66.0564 28.792C66.0244 28.984 65.9524 29.2 65.8404 29.44C65.6804 29.792 65.4724 30.136 65.2164 30.472C64.9764 30.808 64.7684 31.04 64.5924 31.168C64.4164 31.296 64.2404 31.392 64.0644 31.456C63.8884 31.504 63.7284 31.528 63.5844 31.528C63.4244 31.528 63.2804 31.504 63.1524 31.456C63.0404 31.408 62.9444 31.352 62.8644 31.288C63.0724 30.952 63.2804 30.576 63.4884 30.16C63.6964 29.744 63.8804 29.36 64.0404 29.008C64.2004 28.64 64.2964 28.36 64.3284 28.168C64.3444 28.104 64.3524 28.048 64.3524 28C64.3684 27.952 64.3764 27.904 64.3764 27.856C64.3764 27.536 64.2564 27.376 64.0164 27.376C63.8244 27.376 63.6164 27.512 63.3924 27.784C62.9924 28.232 62.6084 28.792 62.2404 29.464C61.8724 30.136 61.5284 30.856 61.2084 31.624C61.1284 31.832 61.0164 32.12 60.8724 32.488C60.7444 32.856 60.6244 33.256 60.5124 33.688C60.4164 34.104 60.3684 34.504 60.3684 34.888C60.3684 35.32 60.4644 35.688 60.6564 35.992C60.8644 36.28 61.2324 36.424 61.7604 36.424C62.2724 36.424 62.7444 36.28 63.1764 35.992C63.6244 35.688 64.0404 35.304 64.4244 34.84C64.8084 34.36 65.1524 33.856 65.4564 33.328C65.7604 32.784 66.0324 32.272 66.2724 31.792C66.3204 31.68 66.4004 31.624 66.5124 31.624C66.6084 31.624 66.6964 31.672 66.7764 31.768C66.8564 31.864 66.8644 31.976 66.8004 32.104C66.5764 32.552 66.3284 33.008 66.0564 33.472C65.8004 33.936 65.5204 34.392 65.2164 34.84C64.7044 35.608 64.0804 36.224 63.3444 36.688C62.6084 37.152 61.7604 37.384 60.8004 37.384ZM69.0069 37.36C67.8389 37.36 66.9909 37.096 66.4629 36.568C65.9509 36.04 65.6949 35.344 65.6949 34.48C65.6949 33.824 65.8309 33.104 66.1029 32.32C66.3109 31.68 66.5909 31.032 66.9429 30.376C67.2949 29.704 67.7029 29.088 68.1669 28.528C68.6309 27.952 69.1429 27.496 69.7029 27.16C70.2629 26.808 70.8549 26.632 71.4789 26.632C72.2789 26.632 72.9269 26.76 73.4229 27.016C73.9349 27.256 74.1909 27.656 74.1909 28.216C74.1909 28.632 74.0229 29.152 73.6869 29.776C73.2389 30.64 72.5829 31.352 71.7189 31.912C70.8549 32.472 69.8869 32.792 68.8149 32.872C68.5749 33.528 68.4309 34.064 68.3829 34.48C68.3669 34.56 68.3589 34.64 68.3589 34.72C68.3589 34.784 68.3589 34.856 68.3589 34.936C68.3589 35.464 68.4789 35.848 68.7189 36.088C68.9589 36.312 69.2549 36.424 69.6069 36.424C70.2629 36.424 70.8389 36.256 71.3349 35.92C71.8309 35.584 72.2629 35.16 72.6309 34.648C73.0149 34.136 73.3429 33.624 73.6149 33.112C73.7749 32.824 73.9109 32.56 74.0229 32.32C74.1349 32.064 74.2229 31.88 74.2869 31.768C74.3669 31.64 74.4549 31.576 74.5509 31.576C74.6469 31.576 74.7349 31.632 74.8149 31.744C74.8949 31.84 74.9029 31.952 74.8389 32.08C74.6309 32.496 74.3429 33.048 73.9749 33.736C73.6069 34.424 73.1909 35.032 72.7269 35.56C72.2149 36.168 71.6629 36.624 71.0709 36.928C70.4949 37.216 69.8069 37.36 69.0069 37.36ZM69.1269 32.176C69.8469 31.904 70.4789 31.416 71.0229 30.712C71.5829 30.008 71.9589 29.232 72.1509 28.384C72.1669 28.304 72.1749 28.232 72.1749 28.168C72.1909 28.104 72.1989 28.04 72.1989 27.976C72.1989 27.656 72.1029 27.496 71.9109 27.496C71.7509 27.496 71.5829 27.608 71.4069 27.832C71.1509 28.136 70.8789 28.552 70.5909 29.08C70.3029 29.592 70.0469 30.096 69.8229 30.592C69.5989 31.088 69.4309 31.464 69.3189 31.72L69.1269 32.176Z" fill="#248FCB"/>
<path d="M18.079 43.819C18.2623 43.511 18.5043 43.2727 18.805 43.104C19.113 42.928 19.476 42.84 19.894 42.84V44.138H19.575C19.0837 44.138 18.7097 44.2627 18.453 44.512C18.2037 44.7613 18.079 45.194 18.079 45.81V49H16.825V42.939H18.079V43.819ZM26.6017 45.821C26.6017 46.0483 26.587 46.2537 26.5577 46.437H21.9267C21.9633 46.921 22.143 47.3097 22.4657 47.603C22.7883 47.8963 23.1843 48.043 23.6537 48.043C24.3283 48.043 24.805 47.7607 25.0837 47.196H26.4367C26.2533 47.7533 25.9197 48.2117 25.4357 48.571C24.959 48.923 24.365 49.099 23.6537 49.099C23.0743 49.099 22.5537 48.9707 22.0917 48.714C21.637 48.45 21.2777 48.0833 21.0137 47.614C20.757 47.1373 20.6287 46.5873 20.6287 45.964C20.6287 45.3407 20.7533 44.7943 21.0027 44.325C21.2593 43.8483 21.615 43.4817 22.0697 43.225C22.5317 42.9683 23.0597 42.84 23.6537 42.84C24.2257 42.84 24.7353 42.9647 25.1827 43.214C25.63 43.4633 25.9783 43.8153 26.2277 44.27C26.477 44.7173 26.6017 45.2343 26.6017 45.821ZM25.2927 45.425C25.2853 44.963 25.1203 44.5927 24.7977 44.314C24.475 44.0353 24.0753 43.896 23.5987 43.896C23.166 43.896 22.7957 44.0353 22.4877 44.314C22.1797 44.5853 21.9963 44.9557 21.9377 45.425H25.2927ZM30.1787 47.878L31.8947 42.939H33.2257L30.9157 49H29.4197L27.1207 42.939H28.4627L30.1787 47.878ZM36.8026 49.099C36.2306 49.099 35.7136 48.9707 35.2516 48.714C34.7896 48.45 34.4266 48.0833 34.1626 47.614C33.8986 47.1373 33.7666 46.5873 33.7666 45.964C33.7666 45.348 33.9023 44.8017 34.1736 44.325C34.445 43.8483 34.8153 43.4817 35.2846 43.225C35.754 42.9683 36.2783 42.84 36.8576 42.84C37.437 42.84 37.9613 42.9683 38.4306 43.225C38.9 43.4817 39.2703 43.8483 39.5416 44.325C39.813 44.8017 39.9486 45.348 39.9486 45.964C39.9486 46.58 39.8093 47.1263 39.5306 47.603C39.252 48.0797 38.8706 48.45 38.3866 48.714C37.91 48.9707 37.382 49.099 36.8026 49.099ZM36.8026 48.01C37.1253 48.01 37.426 47.933 37.7046 47.779C37.9906 47.625 38.2216 47.394 38.3976 47.086C38.5736 46.778 38.6616 46.404 38.6616 45.964C38.6616 45.524 38.5773 45.1537 38.4086 44.853C38.24 44.545 38.0163 44.314 37.7376 44.16C37.459 44.006 37.1583 43.929 36.8356 43.929C36.513 43.929 36.2123 44.006 35.9336 44.16C35.6623 44.314 35.446 44.545 35.2846 44.853C35.1233 45.1537 35.0426 45.524 35.0426 45.964C35.0426 46.6167 35.2076 47.1227 35.5376 47.482C35.875 47.834 36.2966 48.01 36.8026 48.01ZM42.4423 40.86V49H41.1883V40.86H42.4423ZM49.5777 42.939V49H48.3237V48.285C48.1257 48.5343 47.8653 48.7323 47.5427 48.879C47.2273 49.0183 46.89 49.088 46.5307 49.088C46.054 49.088 45.625 48.989 45.2437 48.791C44.8697 48.593 44.5727 48.2997 44.3527 47.911C44.14 47.5223 44.0337 47.053 44.0337 46.503V42.939H45.2767V46.316C45.2767 46.8587 45.4123 47.2767 45.6837 47.57C45.955 47.856 46.3253 47.999 46.7947 47.999C47.264 47.999 47.6343 47.856 47.9057 47.57C48.1843 47.2767 48.3237 46.8587 48.3237 46.316V42.939H49.5777ZM52.6952 43.962V47.317C52.6952 47.5443 52.7466 47.7093 52.8492 47.812C52.9592 47.9073 53.1426 47.955 53.3992 47.955H54.1692V49H53.1792C52.6146 49 52.1819 48.868 51.8812 48.604C51.5806 48.34 51.4302 47.911 51.4302 47.317V43.962H50.7152V42.939H51.4302V41.432H52.6952V42.939H54.1692V43.962H52.6952ZM55.963 42.136C55.7357 42.136 55.545 42.059 55.391 41.905C55.237 41.751 55.16 41.5603 55.16 41.333C55.16 41.1057 55.237 40.915 55.391 40.761C55.545 40.607 55.7357 40.53 55.963 40.53C56.183 40.53 56.37 40.607 56.524 40.761C56.678 40.915 56.755 41.1057 56.755 41.333C56.755 41.5603 56.678 41.751 56.524 41.905C56.37 42.059 56.183 42.136 55.963 42.136ZM56.579 42.939V49H55.325V42.939H56.579ZM60.8544 49.099C60.2824 49.099 59.7654 48.9707 59.3034 48.714C58.8414 48.45 58.4784 48.0833 58.2144 47.614C57.9504 47.1373 57.8184 46.5873 57.8184 45.964C57.8184 45.348 57.9541 44.8017 58.2254 44.325C58.4967 43.8483 58.8671 43.4817 59.3364 43.225C59.8057 42.9683 60.3301 42.84 60.9094 42.84C61.4887 42.84 62.0131 42.9683 62.4824 43.225C62.9517 43.4817 63.3221 43.8483 63.5934 44.325C63.8647 44.8017 64.0004 45.348 64.0004 45.964C64.0004 46.58 63.8611 47.1263 63.5824 47.603C63.3037 48.0797 62.9224 48.45 62.4384 48.714C61.9617 48.9707 61.4337 49.099 60.8544 49.099ZM60.8544 48.01C61.1771 48.01 61.4777 47.933 61.7564 47.779C62.0424 47.625 62.2734 47.394 62.4494 47.086C62.6254 46.778 62.7134 46.404 62.7134 45.964C62.7134 45.524 62.6291 45.1537 62.4604 44.853C62.2917 44.545 62.0681 44.314 61.7894 44.16C61.5107 44.006 61.2101 43.929 60.8874 43.929C60.5647 43.929 60.2641 44.006 59.9854 44.16C59.7141 44.314 59.4977 44.545 59.3364 44.853C59.1751 45.1537 59.0944 45.524 59.0944 45.964C59.0944 46.6167 59.2594 47.1227 59.5894 47.482C59.9267 47.834 60.3484 48.01 60.8544 48.01ZM68.298 42.84C68.7747 42.84 69.2 42.939 69.574 43.137C69.9554 43.335 70.2524 43.6283 70.465 44.017C70.6777 44.4057 70.784 44.875 70.784 45.425V49H69.541V45.612C69.541 45.0693 69.4054 44.655 69.134 44.369C68.8627 44.0757 68.4924 43.929 68.023 43.929C67.5537 43.929 67.1797 44.0757 66.901 44.369C66.6297 44.655 66.494 45.0693 66.494 45.612V49H65.24V42.939H66.494V43.632C66.6994 43.3827 66.9597 43.1883 67.275 43.049C67.5977 42.9097 67.9387 42.84 68.298 42.84ZM73.0216 42.136C72.7943 42.136 72.6036 42.059 72.4496 41.905C72.2956 41.751 72.2186 41.5603 72.2186 41.333C72.2186 41.1057 72.2956 40.915 72.4496 40.761C72.6036 40.607 72.7943 40.53 73.0216 40.53C73.2416 40.53 73.4286 40.607 73.5826 40.761C73.7366 40.915 73.8136 41.1057 73.8136 41.333C73.8136 41.5603 73.7366 41.751 73.5826 41.905C73.4286 42.059 73.2416 42.136 73.0216 42.136ZM73.6376 42.939V49H72.3836V42.939H73.6376ZM76.395 47.977H79.145V49H74.943V47.977L77.704 43.962H74.943V42.939H79.145V43.962L76.395 47.977ZM86.0167 45.821C86.0167 46.0483 86.0021 46.2537 85.9727 46.437H81.3417C81.3784 46.921 81.5581 47.3097 81.8807 47.603C82.2034 47.8963 82.5994 48.043 83.0687 48.043C83.7434 48.043 84.2201 47.7607 84.4987 47.196H85.8517C85.6684 47.7533 85.3347 48.2117 84.8507 48.571C84.3741 48.923 83.7801 49.099 83.0687 49.099C82.4894 49.099 81.9687 48.9707 81.5067 48.714C81.0521 48.45 80.6927 48.0833 80.4287 47.614C80.1721 47.1373 80.0437 46.5873 80.0437 45.964C80.0437 45.3407 80.1684 44.7943 80.4177 44.325C80.6744 43.8483 81.0301 43.4817 81.4847 43.225C81.9467 42.9683 82.4747 42.84 83.0687 42.84C83.6407 42.84 84.1504 42.9647 84.5977 43.214C85.0451 43.4633 85.3934 43.8153 85.6427 44.27C85.8921 44.7173 86.0167 45.2343 86.0167 45.821ZM84.7077 45.425C84.7004 44.963 84.5354 44.5927 84.2127 44.314C83.8901 44.0353 83.4904 43.896 83.0137 43.896C82.5811 43.896 82.2107 44.0353 81.9027 44.314C81.5947 44.5853 81.4114 44.9557 81.3527 45.425H84.7077ZM92.7372 49.099C92.1652 49.099 91.6482 48.9707 91.1862 48.714C90.7242 48.45 90.3612 48.0833 90.0972 47.614C89.8332 47.1373 89.7012 46.5873 89.7012 45.964C89.7012 45.348 89.8369 44.8017 90.1082 44.325C90.3795 43.8483 90.7499 43.4817 91.2192 43.225C91.6885 42.9683 92.2129 42.84 92.7922 42.84C93.3715 42.84 93.8959 42.9683 94.3652 43.225C94.8345 43.4817 95.2049 43.8483 95.4762 44.325C95.7475 44.8017 95.8832 45.348 95.8832 45.964C95.8832 46.58 95.7439 47.1263 95.4652 47.603C95.1865 48.0797 94.8052 48.45 94.3212 48.714C93.8445 48.9707 93.3165 49.099 92.7372 49.099ZM92.7372 48.01C93.0599 48.01 93.3605 47.933 93.6392 47.779C93.9252 47.625 94.1562 47.394 94.3322 47.086C94.5082 46.778 94.5962 46.404 94.5962 45.964C94.5962 45.524 94.5119 45.1537 94.3432 44.853C94.1745 44.545 93.9509 44.314 93.6722 44.16C93.3935 44.006 93.0929 43.929 92.7702 43.929C92.4475 43.929 92.1469 44.006 91.8682 44.16C91.5969 44.314 91.3805 44.545 91.2192 44.853C91.0579 45.1537 90.9772 45.524 90.9772 45.964C90.9772 46.6167 91.1422 47.1227 91.4722 47.482C91.8095 47.834 92.2312 48.01 92.7372 48.01ZM99.6639 43.962H98.5419V49H97.2769V43.962H96.5619V42.939H97.2769V42.51C97.2769 41.8133 97.4602 41.3073 97.8269 40.992C98.2009 40.6693 98.7839 40.508 99.5759 40.508V41.553C99.1945 41.553 98.9269 41.6263 98.7729 41.773C98.6189 41.9123 98.5419 42.158 98.5419 42.51V42.939H99.6639V43.962ZM103.316 43.962H102.194V49H100.929V43.962H100.214V42.939H100.929V42.51C100.929 41.8133 101.113 41.3073 101.479 40.992C101.853 40.6693 102.436 40.508 103.228 40.508V41.553C102.847 41.553 102.579 41.6263 102.425 41.773C102.271 41.9123 102.194 42.158 102.194 42.51V42.939H103.316V43.962ZM105.066 42.136C104.838 42.136 104.648 42.059 104.494 41.905C104.34 41.751 104.263 41.5603 104.263 41.333C104.263 41.1057 104.34 40.915 104.494 40.761C104.648 40.607 104.838 40.53 105.066 40.53C105.286 40.53 105.473 40.607 105.627 40.761C105.781 40.915 105.858 41.1057 105.858 41.333C105.858 41.5603 105.781 41.751 105.627 41.905C105.473 42.059 105.286 42.136 105.066 42.136ZM105.682 42.939V49H104.428V42.939H105.682ZM106.91 45.964C106.91 45.3407 107.035 44.7943 107.284 44.325C107.541 43.8483 107.893 43.4817 108.34 43.225C108.787 42.9683 109.301 42.84 109.88 42.84C110.613 42.84 111.218 43.016 111.695 43.368C112.179 43.7127 112.505 44.2077 112.674 44.853H111.321C111.211 44.5523 111.035 44.3177 110.793 44.149C110.551 43.9803 110.247 43.896 109.88 43.896C109.367 43.896 108.956 44.0793 108.648 44.446C108.347 44.8053 108.197 45.3113 108.197 45.964C108.197 46.6167 108.347 47.1263 108.648 47.493C108.956 47.8597 109.367 48.043 109.88 48.043C110.606 48.043 111.086 47.724 111.321 47.086H112.674C112.498 47.702 112.168 48.1933 111.684 48.56C111.2 48.9193 110.599 49.099 109.88 49.099C109.301 49.099 108.787 48.9707 108.34 48.714C107.893 48.45 107.541 48.0833 107.284 47.614C107.035 47.1373 106.91 46.5873 106.91 45.964ZM119.479 45.821C119.479 46.0483 119.464 46.2537 119.435 46.437H114.804C114.84 46.921 115.02 47.3097 115.343 47.603C115.665 47.8963 116.061 48.043 116.531 48.043C117.205 48.043 117.682 47.7607 117.961 47.196H119.314C119.13 47.7533 118.797 48.2117 118.313 48.571C117.836 48.923 117.242 49.099 116.531 49.099C115.951 49.099 115.431 48.9707 114.969 48.714C114.514 48.45 114.155 48.0833 113.891 47.614C113.634 47.1373 113.506 46.5873 113.506 45.964C113.506 45.3407 113.63 44.7943 113.88 44.325C114.136 43.8483 114.492 43.4817 114.947 43.225C115.409 42.9683 115.937 42.84 116.531 42.84C117.103 42.84 117.612 42.9647 118.06 43.214C118.507 43.4633 118.855 43.8153 119.105 44.27C119.354 44.7173 119.479 45.2343 119.479 45.821ZM118.17 45.425C118.162 44.963 117.997 44.5927 117.675 44.314C117.352 44.0353 116.952 43.896 116.476 43.896C116.043 43.896 115.673 44.0353 115.365 44.314C115.057 44.5853 114.873 44.9557 114.815 45.425H118.17ZM124.824 43.819C125.007 43.511 125.249 43.2727 125.55 43.104C125.858 42.928 126.221 42.84 126.639 42.84V44.138H126.32C125.829 44.138 125.455 44.2627 125.198 44.512C124.949 44.7613 124.824 45.194 124.824 45.81V49H123.57V42.939H124.824V43.819ZM133.347 45.821C133.347 46.0483 133.332 46.2537 133.303 46.437H128.672C128.708 46.921 128.888 47.3097 129.211 47.603C129.533 47.8963 129.929 48.043 130.399 48.043C131.073 48.043 131.55 47.7607 131.829 47.196H133.182C132.998 47.7533 132.665 48.2117 132.181 48.571C131.704 48.923 131.11 49.099 130.399 49.099C129.819 49.099 129.299 48.9707 128.837 48.714C128.382 48.45 128.023 48.0833 127.759 47.614C127.502 47.1373 127.374 46.5873 127.374 45.964C127.374 45.3407 127.498 44.7943 127.748 44.325C128.004 43.8483 128.36 43.4817 128.815 43.225C129.277 42.9683 129.805 42.84 130.399 42.84C130.971 42.84 131.48 42.9647 131.928 43.214C132.375 43.4633 132.723 43.8153 132.973 44.27C133.222 44.7173 133.347 45.2343 133.347 45.821ZM132.038 45.425C132.03 44.963 131.865 44.5927 131.543 44.314C131.22 44.0353 130.82 43.896 130.344 43.896C129.911 43.896 129.541 44.0353 129.233 44.314C128.925 44.5853 128.741 44.9557 128.683 45.425H132.038ZM137.639 42.84C138.116 42.84 138.541 42.939 138.915 43.137C139.296 43.335 139.593 43.6283 139.806 44.017C140.019 44.4057 140.125 44.875 140.125 45.425V49H138.882V45.612C138.882 45.0693 138.746 44.655 138.475 44.369C138.204 44.0757 137.833 43.929 137.364 43.929C136.895 43.929 136.521 44.0757 136.242 44.369C135.971 44.655 135.835 45.0693 135.835 45.612V49H134.581V42.939H135.835V43.632C136.04 43.3827 136.301 43.1883 136.616 43.049C136.939 42.9097 137.28 42.84 137.639 42.84ZM143.187 43.962V47.317C143.187 47.5443 143.239 47.7093 143.341 47.812C143.451 47.9073 143.635 47.955 143.891 47.955H144.661V49H143.671C143.107 49 142.674 48.868 142.373 48.604C142.073 48.34 141.922 47.911 141.922 47.317V43.962H141.207V42.939H141.922V41.432H143.187V42.939H144.661V43.962H143.187ZM145.399 45.942C145.399 45.3333 145.524 44.7943 145.773 44.325C146.03 43.8557 146.375 43.4927 146.807 43.236C147.247 42.972 147.731 42.84 148.259 42.84C148.736 42.84 149.15 42.9353 149.502 43.126C149.862 43.3093 150.148 43.5403 150.36 43.819V42.939H151.625V49H150.36V48.098C150.148 48.384 149.858 48.6223 149.491 48.813C149.125 49.0037 148.707 49.099 148.237 49.099C147.717 49.099 147.24 48.967 146.807 48.703C146.375 48.4317 146.03 48.0577 145.773 47.581C145.524 47.097 145.399 46.5507 145.399 45.942ZM150.36 45.964C150.36 45.546 150.272 45.183 150.096 44.875C149.928 44.567 149.704 44.3323 149.425 44.171C149.147 44.0097 148.846 43.929 148.523 43.929C148.201 43.929 147.9 44.0097 147.621 44.171C147.343 44.325 147.115 44.556 146.939 44.864C146.771 45.1647 146.686 45.524 146.686 45.942C146.686 46.36 146.771 46.7267 146.939 47.042C147.115 47.3573 147.343 47.5993 147.621 47.768C147.907 47.9293 148.208 48.01 148.523 48.01C148.846 48.01 149.147 47.9293 149.425 47.768C149.704 47.6067 149.928 47.372 150.096 47.064C150.272 46.7487 150.36 46.382 150.36 45.964ZM154.526 40.86V49H153.272V40.86H154.526Z" fill="white"/>
<path d="M21.4107 34.6875H20.4286V1.73438C20.4286 0.776494 19.9009 0 19.25 0H2.75C2.09908 0 1.57143 0.776494 1.57143 1.73438V34.6875H0.589286C0.263853 34.6875 0 35.0758 0 35.5547V37H22V35.5547C22 35.0758 21.7361 34.6875 21.4107 34.6875ZM6.28571 5.49219C6.28571 5.01328 6.54957 4.625 6.875 4.625H8.83929C9.16472 4.625 9.42857 5.01328 9.42857 5.49219V8.38281C9.42857 8.86172 9.16472 9.25 8.83929 9.25H6.875C6.54957 9.25 6.28571 8.86172 6.28571 8.38281V5.49219ZM6.28571 12.4297C6.28571 11.9508 6.54957 11.5625 6.875 11.5625H8.83929C9.16472 11.5625 9.42857 11.9508 9.42857 12.4297V15.3203C9.42857 15.7992 9.16472 16.1875 8.83929 16.1875H6.875C6.54957 16.1875 6.28571 15.7992 6.28571 15.3203V12.4297ZM8.83929 23.125H6.875C6.54957 23.125 6.28571 22.7367 6.28571 22.2578V19.3672C6.28571 18.8883 6.54957 18.5 6.875 18.5H8.83929C9.16472 18.5 9.42857 18.8883 9.42857 19.3672V22.2578C9.42857 22.7367 9.16472 23.125 8.83929 23.125ZM12.5714 34.6875H9.42857V28.6172C9.42857 28.1383 9.69242 27.75 10.0179 27.75H11.9821C12.3076 27.75 12.5714 28.1383 12.5714 28.6172V34.6875ZM15.7143 22.2578C15.7143 22.7367 15.4504 23.125 15.125 23.125H13.1607C12.8353 23.125 12.5714 22.7367 12.5714 22.2578V19.3672C12.5714 18.8883 12.8353 18.5 13.1607 18.5H15.125C15.4504 18.5 15.7143 18.8883 15.7143 19.3672V22.2578ZM15.7143 15.3203C15.7143 15.7992 15.4504 16.1875 15.125 16.1875H13.1607C12.8353 16.1875 12.5714 15.7992 12.5714 15.3203V12.4297C12.5714 11.9508 12.8353 11.5625 13.1607 11.5625H15.125C15.4504 11.5625 15.7143 11.9508 15.7143 12.4297V15.3203ZM15.7143 8.38281C15.7143 8.86172 15.4504 9.25 15.125 9.25H13.1607C12.8353 9.25 12.5714 8.86172 12.5714 8.38281V5.49219C12.5714 5.01328 12.8353 4.625 13.1607 4.625H15.125C15.4504 4.625 15.7143 5.01328 15.7143 5.49219V8.38281Z" fill="#FC782E"/>
</svg>
