<svg width="24" height="24" viewBox="0 0 24 24" fill="none" xmlns="http://www.w3.org/2000/svg">
<mask id="path-1-inside-1_425_1055" fill="white">
<path d="M7.5 13.5H13.5V15H7.5V13.5ZM7.5 9.75H16.5V11.25H7.5V9.75ZM7.5 17.25H11.25V18.75H7.5V17.25Z"/>
</mask>
<path d="M7.5 13.5H13.5V15H7.5V13.5ZM7.5 9.75H16.5V11.25H7.5V9.75ZM7.5 17.25H11.25V18.75H7.5V17.25Z" fill="white"/>
<path d="M7.5 13.5V11.5H5.5V13.5H7.5ZM13.5 13.5H15.5V11.5H13.5V13.5ZM13.5 15V17H15.5V15H13.5ZM7.5 15H5.5V17H7.5V15ZM7.5 9.75V7.75H5.5V9.75H7.5ZM16.5 9.75H18.5V7.75H16.5V9.75ZM16.5 11.25V13.25H18.5V11.25H16.5ZM7.5 11.25H5.5V13.25H7.5V11.25ZM7.5 17.25V15.25H5.5V17.25H7.5ZM11.25 17.25H13.25V15.25H11.25V17.25ZM11.25 18.75V20.75H13.25V18.75H11.25ZM7.5 18.75H5.5V20.75H7.5V18.75ZM7.5 15.5H13.5V11.5H7.5V15.5ZM11.5 13.5V15H15.5V13.5H11.5ZM13.5 13H7.5V17H13.5V13ZM9.5 15V13.5H5.5V15H9.5ZM7.5 11.75H16.5V7.75H7.5V11.75ZM14.5 9.75V11.25H18.5V9.75H14.5ZM16.5 9.25H7.5V13.25H16.5V9.25ZM9.5 11.25V9.75H5.5V11.25H9.5ZM7.5 19.25H11.25V15.25H7.5V19.25ZM9.25 17.25V18.75H13.25V17.25H9.25ZM11.25 16.75H7.5V20.75H11.25V16.75ZM9.5 18.75V17.25H5.5V18.75H9.5Z" fill="white" mask="url(#path-1-inside-1_425_1055)"/>
<mask id="path-3-inside-2_425_1055" fill="white">
<path d="M18.75 3.75H16.5V3C16.5 2.60218 16.342 2.22064 16.0607 1.93934C15.7794 1.65804 15.3978 1.5 15 1.5H9C8.60218 1.5 8.22064 1.65804 7.93934 1.93934C7.65804 2.22064 7.5 2.60218 7.5 3V3.75H5.25C4.85218 3.75 4.47064 3.90804 4.18934 4.18934C3.90804 4.47064 3.75 4.85218 3.75 5.25V21C3.75 21.3978 3.90804 21.7794 4.18934 22.0607C4.47064 22.342 4.85218 22.5 5.25 22.5H18.75C19.1478 22.5 19.5294 22.342 19.8107 22.0607C20.092 21.7794 20.25 21.3978 20.25 21V5.25C20.25 4.85218 20.092 4.47064 19.8107 4.18934C19.5294 3.90804 19.1478 3.75 18.75 3.75ZM9 3H15V6H9V3ZM18.75 21H5.25V5.25H7.5V7.5H16.5V5.25H18.75V21Z"/>
</mask>
<path d="M18.75 3.75H16.5V3C16.5 2.60218 16.342 2.22064 16.0607 1.93934C15.7794 1.65804 15.3978 1.5 15 1.5H9C8.60218 1.5 8.22064 1.65804 7.93934 1.93934C7.65804 2.22064 7.5 2.60218 7.5 3V3.75H5.25C4.85218 3.75 4.47064 3.90804 4.18934 4.18934C3.90804 4.47064 3.75 4.85218 3.75 5.25V21C3.75 21.3978 3.90804 21.7794 4.18934 22.0607C4.47064 22.342 4.85218 22.5 5.25 22.5H18.75C19.1478 22.5 19.5294 22.342 19.8107 22.0607C20.092 21.7794 20.25 21.3978 20.25 21V5.25C20.25 4.85218 20.092 4.47064 19.8107 4.18934C19.5294 3.90804 19.1478 3.75 18.75 3.75ZM9 3H15V6H9V3ZM18.75 21H5.25V5.25H7.5V7.5H16.5V5.25H18.75V21Z" fill="white"/>
<path d="M18.75 3.75V1.75V3.75ZM16.5 3.75H14.5V5.75H16.5V3.75ZM15 1.5V-0.5V1.5ZM9 1.5V-0.5V1.5ZM7.5 3.75V5.75H9.5V3.75H7.5ZM5.25 3.75V1.75V3.75ZM3.75 5.25H1.75H3.75ZM3.75 21H1.75H3.75ZM9 3V1H7V3H9ZM15 3H17V1H15V3ZM15 6V8H17V6H15ZM9 6H7V8H9V6ZM18.75 21V23H20.75V21H18.75ZM5.25 21H3.25V23H5.25V21ZM5.25 5.25V3.25H3.25V5.25H5.25ZM7.5 5.25H9.5V3.25H7.5V5.25ZM7.5 7.5H5.5V9.5H7.5V7.5ZM16.5 7.5V9.5H18.5V7.5H16.5ZM16.5 5.25V3.25H14.5V5.25H16.5ZM18.75 5.25H20.75V3.25H18.75V5.25ZM18.75 1.75H16.5V5.75H18.75V1.75ZM18.5 3.75V3H14.5V3.75H18.5ZM18.5 3C18.5 2.07174 18.1313 1.1815 17.4749 0.525126L14.6464 3.35355C14.5527 3.25979 14.5 3.13261 14.5 3H18.5ZM17.4749 0.525126C16.8185 -0.131251 15.9283 -0.5 15 -0.5V3.5C14.8674 3.5 14.7402 3.44732 14.6464 3.35355L17.4749 0.525126ZM15 -0.5H9V3.5H15V-0.5ZM9 -0.5C8.07174 -0.5 7.1815 -0.131251 6.52513 0.525126L9.35355 3.35355C9.25979 3.44732 9.13261 3.5 9 3.5V-0.5ZM6.52513 0.525126C5.86875 1.1815 5.5 2.07174 5.5 3H9.5C9.5 3.13261 9.44732 3.25979 9.35355 3.35355L6.52513 0.525126ZM5.5 3V3.75H9.5V3H5.5ZM7.5 1.75H5.25V5.75H7.5V1.75ZM5.25 1.75C4.32174 1.75 3.4315 2.11875 2.77513 2.77513L5.60355 5.60355C5.50978 5.69732 5.38261 5.75 5.25 5.75V1.75ZM2.77513 2.77513C2.11875 3.4315 1.75 4.32174 1.75 5.25H5.75C5.75 5.38261 5.69732 5.50978 5.60355 5.60355L2.77513 2.77513ZM1.75 5.25V21H5.75V5.25H1.75ZM1.75 21C1.75 21.9283 2.11875 22.8185 2.77513 23.4749L5.60355 20.6464C5.69732 20.7402 5.75 20.8674 5.75 21H1.75ZM2.77513 23.4749C3.4315 24.1313 4.32174 24.5 5.25 24.5V20.5C5.38261 20.5 5.50979 20.5527 5.60355 20.6464L2.77513 23.4749ZM5.25 24.5H18.75V20.5H5.25V24.5ZM18.75 24.5C19.6783 24.5 20.5685 24.1313 21.2249 23.4749L18.3964 20.6464C18.4902 20.5527 18.6174 20.5 18.75 20.5V24.5ZM21.2249 23.4749C21.8813 22.8185 22.25 21.9283 22.25 21H18.25C18.25 20.8674 18.3027 20.7402 18.3964 20.6464L21.2249 23.4749ZM22.25 21V5.25H18.25V21H22.25ZM22.25 5.25C22.25 4.32174 21.8813 3.4315 21.2249 2.77513L18.3964 5.60355C18.3027 5.50979 18.25 5.38261 18.25 5.25H22.25ZM21.2249 2.77513C20.5685 2.11875 19.6783 1.75 18.75 1.75V5.75C18.6174 5.75 18.4902 5.69732 18.3964 5.60355L21.2249 2.77513ZM9 5H15V1H9V5ZM13 3V6H17V3H13ZM15 4H9V8H15V4ZM11 6V3H7V6H11ZM18.75 19H5.25V23H18.75V19ZM7.25 21V5.25H3.25V21H7.25ZM5.25 7.25H7.5V3.25H5.25V7.25ZM5.5 5.25V7.5H9.5V5.25H5.5ZM7.5 9.5H16.5V5.5H7.5V9.5ZM18.5 7.5V5.25H14.5V7.5H18.5ZM16.5 7.25H18.75V3.25H16.5V7.25ZM16.75 5.25V21H20.75V5.25H16.75Z" fill="white" mask="url(#path-3-inside-2_425_1055)"/>
</svg>
